<svg xmlns="http://www.w3.org/2000/svg" xml:space="preserve" id="Layer_1" x="0" y="0" style="enable-background:new 0 0 757.4 549.7" version="1.1" viewBox="0 0 757.4 549.7"><style>.st4{fill:#bfb9b4}.st5{fill:#34363a}.st8{fill:#f9e5e1}.st11{fill:none;stroke:#505066;stroke-width:5;stroke-linecap:round;stroke-miterlimit:10}</style><path d="M590 514.127h-45v-30h45zM154 514.127h-45v-30h45z" class="st4"/><path d="M194.9 143.3c6.6-9.8 22.3-11.2 37.4-4.1 1.2-5.1 5.7-9 11.2-9 6.4 0 11.5 5.1 11.5 11.5v17.5c5.3 9 6.3 18.6 1.6 25.6-7.7 11.4-27.7 11.4-44.8-.1-17-11.4-24.6-30-16.9-41.4zM534.2 264.7c1.5-1.4 2.3-3.3 1-5.9-1.6-3.3-3.2-6.7-3.2-10.6 0-10.5 8.5-19 19-19 6.4 0 9.9 5.9 15.5 8 10.5 4 9-8.5 9-8.5-5.1-12-17.2-20.2-31.2-19.5-16.7.9-30.1 14.9-30.3 31.6-.1 9.4 3.8 17.8 10.1 23.7 2.9 2.7 7.3 2.8 10.1.2z" class="st5"/><linearGradient id="SVGID_1_" x1="295.166" x2="460.06" y1="192.071" y2="377.294" gradientTransform="matrix(-1 0 0 1 757.382 0)" gradientUnits="userSpaceOnUse"><stop offset="0" style="stop-color:#ff3f9f"/><stop offset="1" style="stop-color:#ed3245"/></linearGradient><path d="m234.9 193 20.1-32.8 88 48 103.9-25.5s4.9 6.2 11.9 16.5l56.2 32 8 32-25.1 9.7c6.7 18.6 10.8 37.8 9.1 55.3-6 61-19 99.6-19 99.6l-53.8 3.7-3.2-49.3-21 44-60-19s-8.4-14-23-65c-5-17.4-4-37.9-.3-60.5L234.9 193z" style="fill:url(#SVGID_1_)"/><linearGradient id="SVGID_00000143585328085952446300000018388189494517495446_" x1="366.137" x2="445.76" y1="211.363" y2="429.904" gradientTransform="matrix(-1 0 0 1 757.382 0)" gradientUnits="userSpaceOnUse"><stop offset="0" style="stop-color:#505066"/><stop offset=".697" style="stop-color:#4a4a63"/><stop offset=".999" style="stop-color:#454560"/></linearGradient><path d="M33.5 237.5 250.9 252c1.8.1 3.3 1.4 3.7 3.2 7.2 36.4 35.6 129.8 127.4 162 97 34 168-21 172-63 3.5-36.8-16.7-109-16.7-109H559l63.3 120.3c14.6 27.7 22.2 58.6 22.2 89.9v24.3c0 2.8-2.2 5-5 5H44.7c-2.1 0-3.9-1.7-4-3.8L29.2 241.6c-.1-2.3 1.9-4.3 4.3-4.1z" style="fill:url(#SVGID_00000143585328085952446300000018388189494517495446_)"/><circle cx="374.5" cy="120.7" r="70" class="st8"/><path d="M672 513.9c58 0 85-29.2 85-29.2s11 65-85 65H3c-1.7 0-3-1.3-3-3v-29.8c0-1.7 1.3-3 3-3h669z" style="fill:#cecac6"/><linearGradient id="SVGID_00000027598676318478497560000016234261140903893145_" x1="318.15" x2="412.173" y1="191.49" y2="119.49" gradientTransform="matrix(-1 0 0 1 757.382 0)" gradientUnits="userSpaceOnUse"><stop offset="0" style="stop-color:#fff"/><stop offset="1" style="stop-color:#f7eeff"/></linearGradient><path d="M300.7 170.2c14.8 59.6 60.9 90.6 106.8 79.1s71.2-60 56.4-119.7S402 30.4 356 41.8s-70.1 68.8-55.3 128.4zm131.7-59.5c.9 3.6 1.4 7.2 1.6 10.8-16.6-9.3-38.2-12.4-59.9-7-22.3 5.5-40.1 18.8-50.4 35.3-1.7-3.5-3-7.2-4-11.2-7.7-31.1 0-59.8 42.4-70.3 41.9-10.4 62.6 11.2 70.3 42.4z" style="fill:url(#SVGID_00000027598676318478497560000016234261140903893145_)"/><path d="M415 94.6c-3.4-5.8-10.2-8.9-17.1-7.2-4.2 1-7.6 3.7-9.6 7.2M328.7 117.2c-.3-7.2 4.5-13.8 11.7-15.6 4.1-1 8.2-.3 11.6 1.7M358.7 136c4.1 8.7 13.9 13.5 23.6 11.1 9.5-2.3 15.8-10.9 15.7-20.2" class="st11"/><circle cx="373.1" cy="110.3" r="10.6" class="st8"/><linearGradient id="SVGID_00000181791234870327734200000014780355001206401189_" x1="408.785" x2="483.326" y1="-12.617" y2="46.112" gradientTransform="matrix(-1 0 0 1 757.382 0)" gradientUnits="userSpaceOnUse"><stop offset="0" style="stop-color:#fff"/><stop offset=".396" style="stop-color:#fff6e8"/><stop offset=".953" style="stop-color:#ffe8c2"/></linearGradient><circle cx="306.4" cy="20.6" r="20.6" style="fill:url(#SVGID_00000181791234870327734200000014780355001206401189_)"/><linearGradient id="SVGID_00000029735855654029681050000012131922741879435668_" x1="323.386" x2="472.918" y1="53.867" y2="53.867" gradientTransform="matrix(-1 0 0 1 757.382 0)" gradientUnits="userSpaceOnUse"><stop offset="0" style="stop-color:#ff3f9f"/><stop offset="1" style="stop-color:#ed3245"/></linearGradient><path d="M434 49.2S410.9.3 323 10.9c0 0-10.9 1-10.1 6.7 0 0-23.1 20.6-28.5 78.4l13.3 2.3L359 56.7l72.4 3.4 2.6-10.9z" style="fill:url(#SVGID_00000029735855654029681050000012131922741879435668_)"/><linearGradient id="SVGID_00000170262381946494728110000010104690318970464949_" x1="316.003" x2="469.861" y1="48.823" y2="134.61" gradientTransform="matrix(-1 0 0 1 757.382 0)" gradientUnits="userSpaceOnUse"><stop offset="0" style="stop-color:#fff"/><stop offset=".23" style="stop-color:#fffdf9"/><stop offset=".547" style="stop-color:#fff6e7"/><stop offset=".913" style="stop-color:#ffebca"/><stop offset=".999" style="stop-color:#ffe8c2"/></linearGradient><path d="M363.2 73.6c-42.7 8.3-62.5 56.4-66.5 69.5-.4 1.3-2.1 1.6-2.9.6-5-5.9-8.6-12.6-10.4-20.1-8.7-34.9 23.2-72.8 71.2-84.8s93.9 6.7 102.6 41.6c1.8 7.3 1.8 14.6.4 21.9-.3 1.5-2.3 2-3.2.8-8.8-10.5-42.6-39-91.2-29.5z" style="fill:url(#SVGID_00000170262381946494728110000010104690318970464949_)"/><circle cx="551" cy="248.2" r="19" style="fill:#505066"/><path d="M427.6 285.8c27.2-3.1 52.9-2.5 74.8 1.1 2.9 10.6 4.7 21.1 4.9 31.3-22.7-5-50.4-6.4-79.9-3-40.7 4.7-76.1 17.5-98.5 33.7-.6-2.2-1.3-4.4-2-6.7-1.9-6.6-2.9-13.7-3.3-21.1 23.3-16.9 60.8-30.3 104-35.3z" class="st5"/><circle cx="425" cy="266.2" r="9" class="st5"/><linearGradient id="SVGID_00000093893932139208426010000006609033511094522760_" x1="632.284" x2="519.564" y1="464.271" y2="297.157" gradientTransform="matrix(-1 0 0 1 757.382 0)" gradientUnits="userSpaceOnUse"><stop offset="0" style="stop-color:#505066"/><stop offset="1" style="stop-color:#505066"/></linearGradient><path d="m225.6 289.6-151.1-8.2c-2.4-.1-4.4 1.9-4.2 4.4l13.3 148.8c.2 2.1 1.9 3.6 4 3.6l227.9 1.8c4 0 5.6-5.2 2.2-7.4-24.6-15.7-76-57.7-88.4-139.6-.2-1.9-1.8-3.3-3.7-3.4z" style="fill:url(#SVGID_00000093893932139208426010000006609033511094522760_)"/><linearGradient id="SVGID_00000132798637592487303800000008303991604568210361_" x1="188.779" x2="145.987" y1="450.029" y2="386.588" gradientTransform="matrix(-1 0 0 1 757.382 0)" gradientUnits="userSpaceOnUse"><stop offset="0" style="stop-color:#505066"/><stop offset="1" style="stop-color:#505066"/></linearGradient><path d="M595.4 376.9c4.9 15.6 11.6 39.9 12.2 59.2.1 2.3-1.7 4.2-4 4.2h-48.3c-3.6 0-5.4-4.3-2.8-6.8 10.4-10.3 28.9-31.4 35.3-56.3.9-4 6.4-4.2 7.6-.3z" style="fill:url(#SVGID_00000132798637592487303800000008303991604568210361_)"/><path d="M364.6 116.6c2.5 3.3 6.8 5 11 3.9 4-1 6.9-4.1 7.7-7.8" style="fill:none;stroke:#505066;stroke-width:4;stroke-linecap:round;stroke-linejoin:round;stroke-miterlimit:10"/><path d="M380.1 102.4c-2.5-2.2-6-3.2-9.5-2.3-3.1.8-5.6 2.9-6.9 5.5" style="fill:#f9e5e1;stroke:#e5bab5;stroke-width:4;stroke-linecap:round;stroke-linejoin:round;stroke-miterlimit:10"/></svg>